<?xml version="1.0" encoding="utf-8"?>
<!-- Generator: Adobe Illustrator 19.0.1, SVG Export Plug-In . SVG Version: 6.00 Build 0)  -->
<svg version="1.1" id="Capa_1" xmlns="http://www.w3.org/2000/svg" xmlns:xlink="http://www.w3.org/1999/xlink" x="0px" y="0px"
	 viewBox="0 0 24 24" style="enable-background:new 0 0 24 24;" xml:space="preserve">
<style type="text/css">
	.st0{fill:#707A84;}
</style>
<g id="surface1_54_">
	<path class="st0" d="M10.6,3C9.4,3,8.5,3.9,8.5,5.1v5.5H6.2c-1,0-1.1,0.1-0.3,1l4.6,4.6c1.5,1.5,1.5,1.5,3,0l4.6-4.5
		c0.8-0.9,0.6-1-0.3-1h-2.3V5.1c0-1.2-0.9-2.1-2.1-2.1H10.6z M3,16.2v2.8C3,20.1,3.9,21,5.1,21h13.8c1.2,0,2.1-0.9,2.1-2.1v-2.8
		h-1.4v2.8c0,0.4-0.3,0.7-0.7,0.7H5.1c-0.4,0-0.7-0.3-0.7-0.7v-2.8H3z"/>
</g>
</svg>
