<?xml version="1.0" encoding="utf-8"?>
<!-- Generator: Adobe Illustrator 19.0.1, SVG Export Plug-In . SVG Version: 6.00 Build 0)  -->
<svg version="1.1" id="Capa_1" xmlns="http://www.w3.org/2000/svg" xmlns:xlink="http://www.w3.org/1999/xlink" x="0px" y="0px"
	 viewBox="0 0 24 24" style="enable-background:new 0 0 24 24;" xml:space="preserve">
<style type="text/css">
	.st0{fill:#707A84;}
</style>
<path class="st0" d="M3.1,3.5l7.8,7.5c0.5,0.4,1.2,0.4,1.6,0l7.8-7.5H3.1z M2,4.4v10.8l5.5-5.6L2,4.4z M21.3,4.4l-5,4.8
	c0.3,0,0.6-0.1,0.9-0.1c1.6,0,3,0.6,4.1,1.6V4.4z M17.2,10.6c-2.7,0-4.8,2.2-4.8,5s2.2,5,4.8,5s4.8-2.2,4.8-5S19.8,10.6,17.2,10.6z
	 M8.5,10.6L3,16.2h8c0-0.2,0-0.5,0-0.7c0-1,0.2-2,0.7-2.8c-0.6,0-1.2-0.2-1.7-0.7L8.5,10.6z M17.2,12.7l2.8,2.8l-2.8,2.8v-2.1h-2.1
	c-0.4,0-0.7-0.3-0.7-0.7c0-0.4,0.3-0.7,0.7-0.7h2.1V12.7z"/>
</svg>
