<?xml version="1.0" encoding="utf-8"?>
<!-- Generator: Adobe Illustrator 19.0.1, SVG Export Plug-In . SVG Version: 6.00 Build 0)  -->
<svg version="1.1" id="Capa_1" xmlns="http://www.w3.org/2000/svg" xmlns:xlink="http://www.w3.org/1999/xlink" x="0px" y="0px"
	 viewBox="0 0 24 24" style="enable-background:new 0 0 24 24;" xml:space="preserve">
<style type="text/css">
	.st0{fill:#707A84;}
</style>
<path class="st0" d="M4.3,3.5C3.6,3.5,3,4.1,3,4.9v14.2c0,0.8,0.6,1.4,1.3,1.4h9.3c0.7,0,1.3-0.6,1.3-1.4v-6.4h-4.7
	c-0.4,0-0.7-0.3-0.7-0.7s0.3-0.7,0.7-0.7H15V8.1c0-0.2-0.1-0.4-0.2-0.5l-3.7-3.9c-0.1-0.1-0.3-0.2-0.5-0.2H4.3z M15,11.3v1.4h3.7
	l-1.5,1.6c-0.3,0.3-0.3,0.7,0,1c0.3,0.3,0.7,0.3,0.9,0c0,0,0,0,0,0l2.7-2.8c0.3-0.3,0.3-0.7,0-1l-2.7-2.8c-0.1-0.1-0.3-0.2-0.5-0.2
	c-0.4,0-0.7,0.3-0.7,0.7c0,0.2,0.1,0.4,0.2,0.5l1.5,1.6H15z"/>
</svg>
