<?xml version="1.0" encoding="utf-8"?>
<!-- Generator: Adobe Illustrator 16.0.0, SVG Export Plug-In . SVG Version: 6.00 Build 0)  -->
<!DOCTYPE svg PUBLIC "-//W3C//DTD SVG 1.1//EN" "http://www.w3.org/Graphics/SVG/1.1/DTD/svg11.dtd">
<svg version="1.1" id="Capa_1" xmlns="http://www.w3.org/2000/svg" xmlns:xlink="http://www.w3.org/1999/xlink" x="0px" y="0px"
	 width="16px" height="16px" viewBox="0 0 18 18" enable-background="new 0 0 16 16" xml:space="preserve">
<path fill="#ced4da" d="M6.997,3c2.206,0,4,1.794,4,4c0,0.831-0.257,1.629-0.742,2.311L9.863,9.865l-0.554,0.393
	C8.626,10.743,7.828,11,6.997,11c-2.205,0-4-1.794-4-4C2.997,4.793,4.792,3,6.997,3 M6.997,1c-3.313,0-6,2.686-6,6
	c0,3.314,2.686,6,6,6c1.295,0,2.492-0.414,3.472-1.111l4.818,4.818C15.482,16.902,15.738,17,15.995,17
	c0.258,0,0.513-0.098,0.71-0.293c0.391-0.391,0.391-1.027,0-1.418l-4.82-4.816C12.583,9.491,12.998,8.295,12.998,7
	C12.997,3.686,10.311,1,6.997,1L6.997,1L6.997,1z"/>
</svg>
