<?xml version="1.0" encoding="utf-8"?>
<!-- Generator: Adobe Illustrator 19.0.1, SVG Export Plug-In . SVG Version: 6.00 Build 0)  -->
<svg version="1.1" id="Capa_1" xmlns="http://www.w3.org/2000/svg" xmlns:xlink="http://www.w3.org/1999/xlink" x="0px" y="0px"
	 viewBox="0 0 24 24" style="enable-background:new 0 0 24 24;" xml:space="preserve">
<style type="text/css">
	.st0{fill:#FFFFFF;}
</style>
<path class="st0" d="M18.3,7.7l-4.2-4.5C14,3.1,13.8,3,13.6,3H6.8C6.1,3,5.5,3.6,5.5,4.4v15.2c0,0.8,0.6,1.4,1.3,1.4h10.4
	c0.7,0,1.3-0.6,1.3-1.4V8.2C18.5,8,18.4,7.8,18.3,7.7z M8.5,13c-0.6,0-1-0.4-1-1s0.4-1,1-1s1,0.4,1,1S9.1,13,8.5,13z M16,13h-4.7
	c-0.4,0-0.7-0.4-0.7-1s0.3-1,0.7-1H16c0.4,0,0.7,0.4,0.7,1S16.3,13,16,13z M16,17h-4.7c-0.4,0-0.7-0.4-0.7-1s0.3-1,0.7-1H16
	c0.4,0,0.7,0.4,0.7,1S16.3,17,16,17z M8.5,17c-0.6,0-1-0.4-1-1s0.4-1,1-1s1,0.4,1,1S9.1,17,8.5,17z M13.9,8.5
	c-0.4,0-0.6-0.3-0.6-0.7V4.3l4,4.2H13.9z"/>
</svg>
