<?xml version="1.0" encoding="utf-8"?>
<!-- Generator: Adobe Illustrator 19.0.1, SVG Export Plug-In . SVG Version: 6.00 Build 0)  -->
<svg version="1.1" id="Capa_1" xmlns="http://www.w3.org/2000/svg" xmlns:xlink="http://www.w3.org/1999/xlink" x="0px" y="0px"
	 viewBox="0 0 24 24" style="enable-background:new 0 0 24 24;" xml:space="preserve">
<style type="text/css">
	.st0{fill:#FFFFFF;}
	.st1{fill:url(#SVGID_1_);}
	.st2{fill:url(#SVGID_2_);}
	.st3{fill:url(#SVGID_3_);}
	.st4{fill:url(#SVGID_4_);}
</style>
<polygon class="st0" points="17.6,3.7 16.1,1.5 14.6,3.7 13.2,1.5 11.7,3.7 10.2,1.5 8.7,3.7 7.2,1.5 5.6,3.7 4,1.5 4,6.3 4,17.5 
	4,22.3 5.6,20.1 7.1,22.3 8.6,20.1 10.2,22.3 11.7,20.1 13.2,22.3 14.7,20.1 16.2,22.3 17.6,20.1 19,22.3 19,17.5 19,6.3 19,1.5 "/>
<linearGradient id="SVGID_1_" gradientUnits="userSpaceOnUse" x1="5.75" y1="16.8156" x2="11.75" y2="16.8156">
	<stop  offset="0" style="stop-color:#0154A0"/>
	<stop  offset="1" style="stop-color:#0154A0"/>
</linearGradient>
<path class="st1" d="M10.9,17.8H6.6c-0.5,0-0.8-0.4-0.8-1s0.4-1,0.8-1h4.3c0.5,0,0.8,0.4,0.8,1S11.4,17.8,10.9,17.8z"/>
<linearGradient id="SVGID_2_" gradientUnits="userSpaceOnUse" x1="5.75" y1="12.8156" x2="11.75" y2="12.8156">
	<stop  offset="0" style="stop-color:#0154A0"/>
	<stop  offset="1" style="stop-color:#0154A0"/>
</linearGradient>
<path class="st2" d="M11,13.8H6.5c-0.4,0-0.8-0.4-0.8-1s0.3-1,0.8-1H11c0.4,0,0.8,0.4,0.8,1S11.4,13.8,11,13.8z"/>
<linearGradient id="SVGID_3_" gradientUnits="userSpaceOnUse" x1="5.75" y1="8.8156" x2="17.75" y2="8.8156">
	<stop  offset="0" style="stop-color:#0154A0"/>
	<stop  offset="1" style="stop-color:#0154A0"/>
</linearGradient>
<path class="st3" d="M17,9.8H6.5c-0.4,0-0.8-0.4-0.8-1s0.3-1,0.8-1H17c0.4,0,0.8,0.4,0.8,1S17.4,9.8,17,9.8z"/>
<g>
	<g>
		<linearGradient id="SVGID_4_" gradientUnits="userSpaceOnUse" x1="12.7941" y1="14.8156" x2="17.7116" y2="14.8156">
			<stop  offset="0" style="stop-color:#0154A0"/>
			<stop  offset="1" style="stop-color:#0154A0"/>
		</linearGradient>
		<path class="st4" d="M17.7,14.7v1.1c0,1.1-0.9,2-2.5,2s-2.5-0.9-2.5-2.2v-1.4c0-1.4,0.9-2.2,2.5-2.2c1.2,0,2,0.5,2.3,1.4
			c0.1,0.2,0,0.4-0.2,0.4L16.5,14c-0.2,0.1-0.3,0-0.4-0.2c-0.1-0.4-0.4-0.5-0.8-0.5c-0.6,0-0.9,0.3-0.9,0.8v1.5
			c0,0.6,0.2,0.8,0.9,0.8c0.5,0,0.9-0.2,0.9-0.5v-0.2h-0.8c-0.2,0-0.3-0.1-0.3-0.3v-0.6c0-0.3,0.1-0.3,0.3-0.3h2
			C17.6,14.4,17.7,14.5,17.7,14.7z"/>
	</g>
</g>
</svg>
