<?xml version="1.0" encoding="utf-8"?>
<!-- Generator: Adobe Illustrator 19.0.1, SVG Export Plug-In . SVG Version: 6.00 Build 0)  -->
<svg version="1.1" id="Capa_1" xmlns="http://www.w3.org/2000/svg" xmlns:xlink="http://www.w3.org/1999/xlink" x="0px" y="0px"
	 viewBox="0 0 24 24" style="enable-background:new 0 0 24 24;" xml:space="preserve">
<style type="text/css">
	.st0{fill:#FFFFFF;}
</style>
<g>
	<g>
		<path class="st0" d="M19.4,3c-0.9,0-1.6,0.7-1.6,1.6c0,0.1,0,0.2,0,0.3L15,7.2c-0.2-0.1-0.4-0.1-0.6-0.1c-0.3,0-0.6,0.1-0.9,0.3
			l-2.4-1.2c-0.1-0.9-0.8-1.5-1.6-1.5c-0.9,0-1.6,0.7-1.6,1.6c0,0,0,0.1,0,0.1L5.4,8.1C5.1,8,4.9,7.9,4.6,7.9C3.7,7.9,3,8.6,3,9.5
			c0,0.9,0.7,1.6,1.6,1.6s1.6-0.7,1.6-1.6c0,0,0-0.1,0-0.1l2.6-1.7C9,7.8,9.3,7.9,9.5,7.9c0.3,0,0.6-0.1,0.9-0.3l2.4,1.2
			c0.1,0.9,0.8,1.5,1.6,1.5c0.9,0,1.6-0.7,1.6-1.6c0-0.1,0-0.2,0-0.3l2.7-2.3c0.2,0.1,0.4,0.1,0.6,0.1c0.9,0,1.6-0.7,1.6-1.6
			S20.3,3,19.4,3z M18.8,10c-0.4,0-0.8,0.4-0.8,0.8V21h3V10.8c0-0.4-0.3-0.8-0.8-0.8H18.8z M8.8,11C8.3,11,8,11.4,8,11.8V21h3v-9.2
			c0-0.5-0.3-0.8-0.8-0.8H8.8z M13.8,13c-0.4,0-0.8,0.4-0.8,0.8V21h3v-7.2c0-0.4-0.3-0.8-0.8-0.8H13.8z M3.8,14
			C3.3,14,3,14.4,3,14.9V21h3v-6.1C6,14.4,5.7,14,5.2,14H3.8z"/>
	</g>
</g>
</svg>
