<?xml version="1.0" encoding="utf-8"?>
<!-- Generator: Adobe Illustrator 19.0.1, SVG Export Plug-In . SVG Version: 6.00 Build 0)  -->
<svg version="1.1" id="Capa_1" xmlns="http://www.w3.org/2000/svg" xmlns:xlink="http://www.w3.org/1999/xlink" x="0px" y="0px"
	 viewBox="0 0 24 24" style="enable-background:new 0 0 24 24;" xml:space="preserve">
<style type="text/css">
	.st0{fill:#FFFFFF;enable-background:new    ;}
</style>
<path class="st0" d="M5,3.5C4.2,3.5,3.5,4.2,3.5,5v14c0,0.9,0.7,1.5,1.5,1.5h1.2C6,20,5.8,19.5,5.8,19V5c0-0.5,0.2-1,0.4-1.5H5z
	 M9,3.5C8.2,3.5,7.5,4.2,7.5,5v14c0,0.9,0.7,1.5,1.5,1.5h10c0.8,0,1.5-0.7,1.5-1.5V5c0-0.9-0.7-1.5-1.5-1.5H9z M14.3,9.6h3.9v3.9
	L16.8,12l-1.9,2c-0.3,0.3-0.8,0.3-1.1,0l-1-1L11,14.8C10.8,15,10.7,15,10.5,15s-0.4-0.1-0.5-0.2c-0.3-0.3-0.3-0.8,0-1.1l2.3-2.3
	c0.3-0.3,0.8-0.3,1.1,0l1,1l1.4-1.4L14.3,9.6z"/>
</svg>
