<?xml version="1.0" encoding="utf-8"?>
<!-- Generator: Adobe Illustrator 19.0.1, SVG Export Plug-In . SVG Version: 6.00 Build 0)  -->
<svg version="1.1" id="Capa_1" xmlns="http://www.w3.org/2000/svg" xmlns:xlink="http://www.w3.org/1999/xlink" x="0px" y="0px"
	 viewBox="0 0 24 24" style="enable-background:new 0 0 24 24;" xml:space="preserve">
<style type="text/css">
	.st0{fill:#FFFFFF;}
</style>
<g>
	<path class="st0" d="M19.1,19.5H4.9c-0.8,0-1.4,0.7-1.4,1.5c0,0.8,0.6,1.5,1.4,1.5h14.2c0.8,0,1.4-0.7,1.4-1.5
		C20.5,20.2,19.9,19.5,19.1,19.5z"/>
	<path class="st0" d="M18,3.2l-1.5-1.7L15,3.2l-1.5-1.7L12,3.2l-1.5-1.7L9,3.2L7.5,1.5L6,3.2L4.5,1.5v16h15v-16L18,3.2z M11.7,15.5
		H8.3c-0.5,0-0.8-0.4-0.8-1s0.4-1,0.8-1h3.3c0.5,0,0.8,0.4,0.8,1S12.1,15.5,11.7,15.5z M12.8,11.5H8.2c-0.4,0-0.8-0.4-0.8-1
		s0.3-1,0.8-1h4.5c0.4,0,0.8,0.4,0.8,1S13.2,11.5,12.8,11.5z M15.5,15.5c-0.6,0-1-0.4-1-1s0.4-1,1-1s1,0.4,1,1S16.1,15.5,15.5,15.5z
		 M15.5,11.5c-0.6,0-1-0.4-1-1s0.4-1,1-1s1,0.4,1,1S16.1,11.5,15.5,11.5z M15.8,7.5H8.2c-0.4,0-0.8-0.4-0.8-1s0.3-1,0.8-1h7.5
		c0.4,0,0.8,0.4,0.8,1S16.2,7.5,15.8,7.5z"/>
</g>
</svg>
