<?xml version="1.0" encoding="utf-8"?>
<!-- Generator: Adobe Illustrator 19.0.1, SVG Export Plug-In . SVG Version: 6.00 Build 0)  -->
<svg version="1.1" id="Capa_1" xmlns="http://www.w3.org/2000/svg" xmlns:xlink="http://www.w3.org/1999/xlink" x="0px" y="0px"
	 viewBox="0 0 24 24" style="enable-background:new 0 0 24 24;" xml:space="preserve">
<style type="text/css">
	.st0{fill:#FFFFFF;}
</style>
<g id="surface1_132_">
	<path class="st0" d="M12,3c-1.9,0-3.4,1.7-3.4,3.8v0.8H5.9L4.7,19.3C4.6,20.2,5.3,21,6.2,21h11.7c0.9,0,1.6-0.8,1.5-1.7L18.1,7.6
		h-2v2.3c0,0.6-0.5,1.1-1,1.1c-0.1,0-0.2,0-0.2,0c-0.5-0.1-0.8-0.6-0.8-1.1c0-0.5,0.3-0.9,0.7-1.1v1.1c0,0.2,0.2,0.4,0.3,0.4
		c0.2,0,0.3-0.2,0.3-0.4V6.8C15.4,4.7,13.9,3,12,3z M12,3.8c1.5,0,2.7,1.4,2.7,3.1v0.8H10v2.3c0,0.6-0.5,1.1-1,1.1
		c-0.1,0-0.2,0-0.2,0c-0.5-0.1-0.8-0.6-0.8-1.1c0-0.5,0.3-0.9,0.7-1.1v1.1c0,0.2,0.2,0.4,0.3,0.4c0.2,0,0.3-0.2,0.3-0.4V6.8
		C9.3,5.1,10.5,3.8,12,3.8z"/>
</g>
</svg>
