<?xml version="1.0" encoding="utf-8"?>
<!-- Generator: Adobe Illustrator 19.0.1, SVG Export Plug-In . SVG Version: 6.00 Build 0)  -->
<svg version="1.1" id="Capa_1" xmlns="http://www.w3.org/2000/svg" xmlns:xlink="http://www.w3.org/1999/xlink" x="0px" y="0px"
	 viewBox="0 0 24 24" style="enable-background:new 0 0 24 24;" xml:space="preserve">
<style type="text/css">
	.st0{fill:#FFFFFF;enable-background:new    ;}
</style>
<path class="st0" d="M4.4,3L3,4.5l1.4,3l2.1,0.7l2.4,2.6l1.4-1.5L7.8,6.7L7.2,4.5L4.4,3z M16.9,3c-1.1,0-2.3,0.4-3.2,1.3
	C12.6,5.5,12.5,7,13,8.4l-8,8.7c-0.8,0.9-0.8,2.3,0,3.2c0.8,0.9,2.1,0.9,2.9,0l8-8.7c1.3,0.6,2.6,0.5,3.8-0.7c1.2-1.3,1.5-3.1,1-4.7
	L18.2,9L16,8.4L15.5,6L18,3.2C17.7,3.1,17.3,3,16.9,3z M15.8,14l-2.6,2.8l3.3,3.6c0.7,0.8,1.9,0.8,2.6,0s0.7-2,0-2.8L15.8,14z
	 M6.5,17.7c0.6,0,1,0.4,1,1s-0.4,1-1,1s-1-0.4-1-1S5.9,17.7,6.5,17.7z"/>
</svg>
