<?xml version="1.0" encoding="utf-8"?>
<!-- Generator: Adobe Illustrator 19.0.1, SVG Export Plug-In . SVG Version: 6.00 Build 0)  -->
<svg version="1.1" id="Capa_1" xmlns="http://www.w3.org/2000/svg" xmlns:xlink="http://www.w3.org/1999/xlink" x="0px" y="0px"
	 viewBox="0 0 24 24" style="enable-background:new 0 0 24 24;" xml:space="preserve">
<style type="text/css">
	.st0{fill:#FFFFFF;}
	.st1{fill:none;}
</style>
<g>
	<g id="surface1_133_">
		<path class="st0" d="M10.7,3.1c-1.3,0-2.2,1-2.2,2.2c0,0.5,0.2,1,0.4,1.3h3.6c0.3-0.4,0.4-0.8,0.4-1.3C12.9,4.1,11.9,3.1,10.7,3.1
			z M17.4,5.2c-1.3,0-2.7,1.1-3.2,2.5c-0.2-0.1-1-0.2-1.2-0.2h-2.6c-2.3,0-4.7,1.5-5.5,4c0-0.1-0.1-0.3-0.1-0.5
			c0-0.3-0.1-0.5-0.3-0.7c-0.2-0.2-0.5-0.2-0.8-0.2C3.3,10.3,3,10.7,3,11.1c0,1.4,0.6,2.5,1.4,3c0.1,0,0.1,0,0.2,0.1
			c0.2,1.3,0.8,2.4,1.9,3.3c0.2,0.2,0.5,0.5,0.4,1.2v0.2c-0.2,0.8,0.3,1.6,1.2,1.8L9.9,21c0,0,0.1-0.4,0.2-1c0.1-0.5,0.5-0.6,1-0.5
			c0.3,0,0.6,0.1,1,0.1c0.4,0,0.8,0,1.2-0.1c0.2,0,0.6,0,0.7,0.4c0.1,0.4,0.3,1.1,0.3,1.1l1.8-0.3c0.8-0.2,1.4-1,1.2-1.8v-0.2
			c-0.1-0.4,0.2-0.7,0.3-0.8c0.4-0.4,0.9-0.9,1.1-1.3c0.1-0.3,0.5-0.7,1.2-0.7h0.3c0.5,0,0.9-0.4,0.9-0.9v-2.1
			c0-0.5-0.4-0.7-0.9-0.7C20,12,19.8,12,19.8,12c-0.4,0-0.7-0.5-0.9-0.8c-0.4-0.6-0.8-1.6-1.7-2.1c-0.4,0.5-0.5,0.8-0.6,1.7
			C16,8,17,6.1,17.4,5.2z M17.4,12c0.5,0,0.9,0.4,0.9,0.9c0,0.5-0.4,0.9-0.9,0.9c-0.5,0-0.9-0.4-0.9-0.9C16.5,12.4,16.9,12,17.4,12z
			"/>
	</g>
	<rect class="st1" width="24" height="24"/>
</g>
</svg>
